<?xml version="1.0" encoding="UTF-8"?>
<svg xmlns="http://www.w3.org/2000/svg" xmlns:xlink="http://www.w3.org/1999/xlink" width="32px" height="32px" viewBox="0 0 32 32" version="1.1">
<g id="surface1">
<path style=" stroke:none;fill-rule:nonzero;fill:rgb(0%,0%,0%);fill-opacity:1;" d="M 16 0 C 7.164062 0 0 7.164062 0 16 C 0 23.070312 4.585938 29.066406 10.941406 31.183594 C 11.742188 31.332031 12 30.835938 12 30.414062 L 12 27.433594 C 7.550781 28.402344 6.621094 25.546875 6.621094 25.546875 C 5.894531 23.699219 4.84375 23.207031 4.84375 23.207031 C 3.394531 22.210938 4.957031 22.234375 4.957031 22.234375 C 6.5625 22.34375 7.40625 23.882812 7.40625 23.882812 C 8.835938 26.328125 11.152344 25.621094 12.0625 25.210938 C 12.207031 24.179688 12.621094 23.472656 13.078125 23.074219 C 9.527344 22.667969 5.789062 21.292969 5.789062 15.164062 C 5.789062 13.417969 6.414062 11.992188 7.4375 10.871094 C 7.273438 10.464844 6.726562 8.839844 7.59375 6.636719 C 7.59375 6.636719 8.9375 6.207031 11.996094 8.277344 C 13.273438 7.921875 14.640625 7.742188 16 7.738281 C 17.359375 7.742188 18.730469 7.921875 20.007812 8.277344 C 23.0625 6.207031 24.402344 6.636719 24.402344 6.636719 C 25.273438 8.839844 24.726562 10.46875 24.5625 10.871094 C 25.589844 11.992188 26.207031 13.417969 26.207031 15.164062 C 26.207031 21.3125 22.464844 22.664062 18.902344 23.058594 C 19.476562 23.554688 20 24.53125 20 26.023438 L 20 30.414062 C 20 30.839844 20.257812 31.339844 21.066406 31.179688 C 27.421875 29.0625 32 23.066406 32 16 C 32 7.164062 24.835938 0 16 0 Z M 16 0 "/>
</g>
</svg>
