<?xml version="1.0" standalone="no"?>
<!DOCTYPE svg PUBLIC "-//W3C//DTD SVG 20010904//EN"
 "http://www.w3.org/TR/2001/REC-SVG-20010904/DTD/svg10.dtd">
<svg version="1.0" xmlns="http://www.w3.org/2000/svg"
 width="500.000000pt" height="500.000000pt" viewBox="0 0 500.000000 500.000000"
 preserveAspectRatio="xMidYMid meet">

<g transform="translate(0.000000,500.000000) scale(0.100000,-0.100000)"
fill="#000000" stroke="none">
<path d="M0 2500 l0 -2500 2500 0 2500 0 0 2500 0 2500 -2500 0 -2500 0 0
-2500z m1674 366 c32 -13 341 -345 341 -366 0 -16 -297 -342 -330 -361 -75
-46 -108 -26 -295 182 l-161 179 158 175 c187 207 211 223 287 191z m236 -1
c27 -14 340 -351 340 -366 0 -7 -275 -313 -312 -347 -30 -27 -83 -38 -120 -23
-35 13 -36 27 -3 35 35 9 80 51 217 203 l120 133 -124 138 c-145 161 -163 178
-205 194 -39 14 -42 25 -10 38 33 13 65 12 97 -5z m608 -101 c12 -4 22 -13 22
-20 0 -10 -15 -14 -55 -14 -51 0 -56 -2 -66 -27 -13 -35 -6 -113 12 -124 8 -5
29 -9 47 -9 31 0 32 1 32 46 0 38 3 45 18 42 14 -3 17 -14 17 -58 l0 -54 -39
-9 c-25 -6 -51 -6 -77 2 -32 10 -40 18 -49 49 -20 72 -4 157 33 172 26 10 73
12 105 4z m300 -17 c2 -12 -3 -17 -17 -17 -15 0 -21 6 -21 21 0 25 33 22 38
-4z m80 -95 c3 -107 2 -112 -18 -112 -19 0 -20 6 -20 116 0 105 2 115 18 112
15 -3 17 -18 20 -116z m82 81 c4 -26 8 -31 20 -23 26 16 58 11 74 -12 11 -15
16 -45 16 -90 0 -61 -2 -68 -20 -68 -18 0 -20 7 -20 65 0 52 -4 67 -16 72 -33
12 -49 -11 -52 -76 -3 -53 -6 -61 -22 -61 -19 0 -20 8 -20 116 0 105 2 115 18
112 10 -2 19 -15 22 -35z m-360 -88 c0 -72 1 -75 24 -75 34 0 44 18 48 85 2
48 7 60 21 63 15 3 17 -6 17 -88 0 -89 -1 -91 -22 -89 -13 1 -35 -1 -51 -6
-19 -5 -35 -2 -52 9 -23 15 -25 22 -25 96 0 73 2 80 20 80 18 0 20 -7 20 -75z
m198 -18 c3 -82 2 -87 -18 -87 -19 0 -20 6 -20 91 0 81 2 90 18 87 14 -3 17
-17 20 -91z m432 73 c12 -12 20 -33 20 -55 l0 -35 -56 0 c-47 0 -55 -3 -52
-17 2 -14 15 -19 51 -21 54 -4 65 -26 17 -37 -48 -11 -90 3 -101 33 -16 40 -5
123 17 139 27 20 81 16 104 -7z m90 10 c0 -7 6 -7 19 0 28 15 41 12 41 -8 0
-10 -12 -22 -30 -29 -29 -11 -30 -14 -30 -72 0 -54 -2 -61 -20 -61 -19 0 -20
7 -20 90 0 83 1 90 20 90 11 0 20 -5 20 -10z m115 0 c3 -6 15 -5 30 2 18 8 31
8 49 0 18 -8 33 -8 55 1 53 20 66 3 69 -92 3 -76 2 -81 -18 -81 -18 0 -20 6
-20 70 0 61 -2 70 -18 70 -31 0 -42 -22 -42 -82 0 -51 -2 -58 -20 -58 -18 0
-20 7 -20 70 0 61 -2 70 -18 70 -31 0 -42 -22 -42 -82 0 -51 -2 -58 -20 -58
-19 0 -20 7 -20 90 0 72 3 90 14 90 8 0 17 -4 21 -10z m363 -6 c16 -11 22 -25
22 -55 l0 -39 -55 0 c-30 0 -55 -2 -55 -4 0 -25 16 -36 56 -36 31 0 44 -4 44
-14 0 -28 -72 -36 -107 -11 -38 26 -38 143 -1 167 21 13 72 9 96 -8z"/>
<path d="M1476 2658 c-75 -84 -136 -155 -136 -159 0 -4 64 -78 141 -164 l141
-157 34 33 c33 32 33 33 16 53 -10 12 -59 67 -110 122 -51 56 -92 107 -92 113
0 7 49 67 110 134 l110 121 -27 28 c-15 15 -32 28 -39 28 -7 0 -73 -68 -148
-152z"/>
<path d="M1655 2599 c-44 -50 -80 -94 -80 -99 0 -4 37 -51 83 -103 l84 -95 84
93 c46 51 84 99 84 105 0 12 -158 190 -169 190 -3 0 -42 -41 -86 -91z"/>
<path d="M3167 2674 c-18 -19 -5 -34 29 -34 28 0 35 3 32 18 -3 17 -48 29 -61
16z"/>
<path d="M3736 2664 c-9 -24 -9 -24 29 -24 28 0 35 4 35 20 0 15 -7 20 -29 20
-17 0 -31 -6 -35 -16z"/>
</g>
</svg>
